<?xml version="1.0" encoding="utf-8" ?>	<!-- Generator: Assembly 2.4 - http://assemblyapp.co -->	<svg version="1.1" xmlns="http://www.w3.org/2000/svg" xmlns:xlink="http://www.w3.org/1999/xlink" width="4096.00" height="2731.00" viewBox="0 0 4096.0 2731.0">		<g id="document" transform="scale(1.0 1.0) translate(2048.0 1369.2020776621343)">			<path d="M-1227.06,-51.1504 L989.616,432.675 C1027.36,439.538 1054.81,473.852 1054.81,515.029 C1054.81,569.931 1003.34,607.676 951.871,597.382 L-1254.51,89.5365 C-1285.39,82.6737 -1309.41,58.654 -1316.28,27.7715 C-1323.14,-23.6993 -1275.1,-61.4446 -1227.06,-51.1504 Z M-235.39,96.3993 C-170.193,62.0854 -129.017,7.18318 -129.017,-54.5818 C-129.017,-157.523 -245.684,-243.308 -393.234,-243.308 C-540.783,-243.308 -657.451,-157.523 -657.451,-54.5818 C-657.451,-33.9935 -650.588,-13.4052 -643.725,7.18318 L-1196.18,-112.915 C-1247.65,-123.21 -1264.81,-188.406 -1223.63,-222.72 C-856.471,-531.545 -276.567,-775.174 430.3,-912.429 C495.496,-926.155 560.692,-902.135 605.3,-850.664 L660.203,-785.468 C519.516,-782.036 409.711,-723.703 409.711,-655.075 C409.711,-583.016 526.379,-524.682 673.928,-524.682 C742.556,-524.682 804.321,-538.408 848.929,-558.996 L1693.05,456.695 C1737.66,508.166 1761.68,576.794 1761.68,645.422 L1761.68,1201.31 C1761.68,1256.21 1720.5,1307.68 1665.6,1311.11 C1603.83,1317.97 1548.93,1266.5 1548.93,1204.74 L1548.93,751.795 L1548.93,738.069 C1548.93,683.167 1507.76,631.696 1452.85,628.265 C1391.09,621.402 1336.19,672.873 1336.19,734.638 L1336.19,751.795 L1336.19,755.226 C1336.19,803.265 1305.3,847.874 1260.7,858.168 C1188.64,875.325 1126.87,823.854 1126.87,755.226 L1126.87,497.872 C1126.87,439.538 1085.69,384.636 1027.36,374.342 L-235.39,96.3993 Z M-129.017,-644.781 C-273.135,-644.781 -393.234,-579.584 -393.234,-500.662 C-393.234,-421.74 -276.567,-356.544 -129.017,-356.544 C15.1016,-356.544 135.2,-421.74 135.2,-500.662 C135.2,-579.584 15.1016,-644.781 -129.017,-644.781 Z M461.182,-394.289 C327.358,-394.289 220.985,-325.662 220.985,-239.877 C220.985,-154.092 327.358,-85.4643 461.182,-85.4643 C595.006,-85.4643 701.379,-154.092 701.379,-239.877 C701.379,-325.662 595.006,-394.289 461.182,-394.289 Z M1257.26,103.262 C1257.26,10.6146 1140.6,-68.3074 993.047,-68.3074 C845.498,-68.3074 728.83,7.18318 728.83,103.262 C728.83,195.91 845.498,274.832 993.047,274.832 C1140.6,274.832 1257.26,199.341 1257.26,103.262 Z M-1563.34,-466.349 C-1563.34,-466.349 -1563.34,-466.349 -1563.34,-466.349 C-907.942,-1101.16 327.358,-1300.18 382.26,-1307.04 C474.908,-1320.76 560.692,-1259 574.418,-1166.35 C588.144,-1073.7 526.379,-987.92 433.731,-974.194 C423.437,-974.194 -595.686,-809.487 -1203.04,-332.524 C-1261.38,-284.485 -1312.85,-229.583 -1347.16,-160.955 C-1374.61,-102.621 -1422.65,-61.4446 -1477.55,-61.4446 C-1563.34,-61.4446 -1635.4,-160.955 -1635.4,-281.053 C-1635.4,-356.544 -1604.51,-425.172 -1563.34,-466.349 Z " fill="#fe5f1e" fill-opacity="1.00" />		</g>	</svg>